<svg width="1915" height="1036" viewBox="0 0 1915 1036" fill="none" xmlns="http://www.w3.org/2000/svg">
<g opacity="0.4">
<path d="M505.483 -47V590.875L-70.9974 710.525" stroke="white" stroke-opacity="0.42" stroke-width="0.25" stroke-linecap="round" stroke-linejoin="round"/>
<path d="M598.852 -47V590.875L-70.9974 764.65" stroke="white" stroke-opacity="0.42" stroke-width="0.25" stroke-linecap="round" stroke-linejoin="round"/>
<path d="M692.22 -47V590.875L-70.998 854.831" stroke="white" stroke-opacity="0.42" stroke-width="0.25" stroke-linecap="round" stroke-linejoin="round"/>
<path d="M785.597 -47V590.875L-70.5538 1034.89" stroke="white" stroke-opacity="0.42" stroke-width="0.25" stroke-linecap="round" stroke-linejoin="round"/>
<path d="M878.963 -47V590.875L450.52 1034.89" stroke="white" stroke-opacity="0.42" stroke-width="0.25" stroke-linecap="round" stroke-linejoin="round"/>
<path d="M972.334 -47V590.875L971.604 1034.89" stroke="white" stroke-opacity="0.42" stroke-width="0.25" stroke-linecap="round" stroke-linejoin="round"/>
<path d="M1065.71 -47V590.875L1492.68 1034.89" stroke="white" stroke-opacity="0.42" stroke-width="0.25" stroke-linecap="round" stroke-linejoin="round"/>
<path d="M1159.08 -47V590.875L2013.75 1034.89" stroke="white" stroke-opacity="0.42" stroke-width="0.25" stroke-linecap="round" stroke-linejoin="round"/>
<path d="M1252.46 -47V590.875L2016 855.245" stroke="white" stroke-opacity="0.42" stroke-width="0.25" stroke-linecap="round" stroke-linejoin="round"/>
<path d="M1345.82 -47V590.875L2016 764.881" stroke="white" stroke-opacity="0.42" stroke-width="0.25" stroke-linecap="round" stroke-linejoin="round"/>
<path d="M1439.19 -47V590.875L2016 710.676" stroke="white" stroke-opacity="0.42" stroke-width="0.25" stroke-linecap="round" stroke-linejoin="round"/>
<path d="M1532.57 -47V590.875L2016 674.543" stroke="white" stroke-opacity="0.42" stroke-width="0.25" stroke-linecap="round" stroke-linejoin="round"/>
<path d="M1625.94 -47V590.875L2016 648.738" stroke="white" stroke-opacity="0.42" stroke-width="0.25" stroke-linecap="round" stroke-linejoin="round"/>
<path d="M1719.31 -47V590.875L2016 629.384" stroke="white" stroke-opacity="0.42" stroke-width="0.25" stroke-linecap="round" stroke-linejoin="round"/>
<path d="M1812.68 -47V590.875L2016 614.331" stroke="white" stroke-opacity="0.42" stroke-width="0.25" stroke-linecap="round" stroke-linejoin="round"/>
<path d="M1906.05 -47V590.875L2016 602.293" stroke="white" stroke-opacity="0.42" stroke-width="0.25" stroke-linecap="round" stroke-linejoin="round"/>
<path d="M-70.998 648.659L318.739 590.875V-47" stroke="white" stroke-opacity="0.42" stroke-width="0.25" stroke-linecap="round" stroke-linejoin="round"/>
<path d="M412.108 -47V590.875L-70.998 674.439" stroke="white" stroke-opacity="0.42" stroke-width="0.25" stroke-linecap="round" stroke-linejoin="round"/>
<path d="M225.371 -47V590.875L-71 629.327" stroke="white" stroke-opacity="0.42" stroke-width="0.25" stroke-linecap="round" stroke-linejoin="round"/>
<path d="M131.992 -47V590.875L-70.9974 614.283" stroke="white" stroke-opacity="0.42" stroke-width="0.25" stroke-linecap="round" stroke-linejoin="round"/>
<path d="M38.6264 -47V590.875L-70.998 602.251" stroke="white" stroke-opacity="0.42" stroke-width="0.25" stroke-linecap="round" stroke-linejoin="round"/>
<path d="M-70.998 542.474H2016" stroke="white" stroke-opacity="0.42" stroke-width="0.25" stroke-linecap="round" stroke-linejoin="round"/>
<path d="M-70.998 494.067H2016" stroke="white" stroke-opacity="0.42" stroke-width="0.25" stroke-linecap="round" stroke-linejoin="round"/>
<path d="M-70.998 445.666H2016" stroke="white" stroke-opacity="0.42" stroke-width="0.25" stroke-linecap="round" stroke-linejoin="round"/>
<path d="M-70.998 397.265H2016" stroke="white" stroke-opacity="0.42" stroke-width="0.25" stroke-linecap="round" stroke-linejoin="round"/>
<path d="M-70.998 348.858H2016" stroke="white" stroke-opacity="0.42" stroke-width="0.25" stroke-linecap="round" stroke-linejoin="round"/>
<path d="M-70.998 300.457H2016" stroke="white" stroke-opacity="0.42" stroke-width="0.25" stroke-linecap="round" stroke-linejoin="round"/>
<path d="M-70.998 252.055H2016" stroke="white" stroke-opacity="0.42" stroke-width="0.25" stroke-linecap="round" stroke-linejoin="round"/>
<path d="M-70.998 203.649H2016" stroke="white" stroke-opacity="0.42" stroke-width="0.25" stroke-linecap="round" stroke-linejoin="round"/>
<path d="M-70.998 155.247H2016" stroke="white" stroke-opacity="0.42" stroke-width="0.25" stroke-linecap="round" stroke-linejoin="round"/>
<path d="M-70.998 106.846H2016" stroke="white" stroke-opacity="0.42" stroke-width="0.25" stroke-linecap="round" stroke-linejoin="round"/>
<path d="M-70.998 58.4392H2016" stroke="white" stroke-opacity="0.42" stroke-width="0.25" stroke-linecap="round" stroke-linejoin="round"/>
<path d="M-70.998 10.0379H2016" stroke="white" stroke-opacity="0.42" stroke-width="0.25" stroke-linecap="round" stroke-linejoin="round"/>
<path d="M2016 803.827H-70.998" stroke="white" stroke-opacity="0.42" stroke-width="0.25" stroke-linecap="round" stroke-linejoin="round"/>
<path d="M2016 766.414H-70.998" stroke="white" stroke-opacity="0.42" stroke-width="0.25" stroke-linecap="round" stroke-linejoin="round"/>
<path d="M2016 737.066H-70.998" stroke="white" stroke-opacity="0.42" stroke-width="0.25" stroke-linecap="round" stroke-linejoin="round"/>
<path d="M2016 853.146H-70.998" stroke="white" stroke-opacity="0.42" stroke-width="0.25" stroke-linecap="round" stroke-linejoin="round"/>
<path d="M2016 713.421H-70.998" stroke="white" stroke-opacity="0.42" stroke-width="0.25" stroke-linecap="round" stroke-linejoin="round"/>
<path d="M2016 693.969H-70.998" stroke="white" stroke-opacity="0.42" stroke-width="0.25" stroke-linecap="round" stroke-linejoin="round"/>
<path d="M2016 595.225H-70.998" stroke="white" stroke-opacity="0.42" stroke-width="0.25" stroke-linecap="round" stroke-linejoin="round"/>
<path d="M2016 590.875H-70.998" stroke="white" stroke-opacity="0.42" stroke-width="0.25" stroke-linecap="round" stroke-linejoin="round"/>
<path d="M2016 605.211H-70.998" stroke="white" stroke-opacity="0.42" stroke-width="0.25" stroke-linecap="round" stroke-linejoin="round"/>
<path d="M2016 599.984H-70.998" stroke="white" stroke-opacity="0.42" stroke-width="0.25" stroke-linecap="round" stroke-linejoin="round"/>
<path d="M2016 651.953H-70.998" stroke="white" stroke-opacity="0.42" stroke-width="0.25" stroke-linecap="round" stroke-linejoin="round"/>
<path d="M2016 677.681H-70.998" stroke="white" stroke-opacity="0.42" stroke-width="0.25" stroke-linecap="round" stroke-linejoin="round"/>
<path d="M2016 921.142H-70.998" stroke="white" stroke-opacity="0.42" stroke-width="0.25" stroke-linecap="round" stroke-linejoin="round"/>
<path d="M2016 617.385H-70.998" stroke="white" stroke-opacity="0.42" stroke-width="0.25" stroke-linecap="round" stroke-linejoin="round"/>
<path d="M2016 610.983H-70.998" stroke="white" stroke-opacity="0.42" stroke-width="0.25" stroke-linecap="round" stroke-linejoin="round"/>
<path d="M2016 641.618H-70.998" stroke="white" stroke-opacity="0.42" stroke-width="0.25" stroke-linecap="round" stroke-linejoin="round"/>
<path d="M2016 632.544H-70.998" stroke="white" stroke-opacity="0.42" stroke-width="0.25" stroke-linecap="round" stroke-linejoin="round"/>
<path d="M2016 624.526H-70.998" stroke="white" stroke-opacity="0.42" stroke-width="0.25" stroke-linecap="round" stroke-linejoin="round"/>
<path d="M2016 663.849H-70.998" stroke="white" stroke-opacity="0.42" stroke-width="0.25" stroke-linecap="round" stroke-linejoin="round"/>
<path d="M2013.75 1034.89H-70.5538" stroke="white" stroke-opacity="0.42" stroke-width="0.25" stroke-linecap="round" stroke-linejoin="round"/>
</g>
</svg>
